<svg width="16" height="16" viewBox="0 0 16 16" fill="none" xmlns="http://www.w3.org/2000/svg">
<path d="M12.5914 13.0079L7.96955 8.49698C7.8956 8.42796 7.84383 8.35648 7.81425 8.28253C7.78467 8.20858 7.76988 8.11984 7.76988 8.01631V1.39039H8.95308V7.10672L13.8042 4.32621L14.4032 5.35411L9.43376 8.19379L13.4862 12.1797L12.5914 13.0079ZM8.35409 15.5C7.30893 15.5 6.32539 15.3004 5.40349 14.901C4.48158 14.5066 3.66813 13.9569 2.96314 13.252C2.26308 12.547 1.71338 11.7335 1.31406 10.8116C0.914726 9.8897 0.715061 8.90617 0.715061 7.86101C0.715061 6.81585 0.914726 5.83232 1.31406 4.91041C1.71338 3.9885 2.26308 3.17752 2.96314 2.47746C3.66813 1.77247 4.47911 1.22031 5.39609 0.82098C6.318 0.42165 7.30153 0.221985 8.34669 0.221985C9.39678 0.221985 10.3828 0.42165 11.3047 0.82098C12.2266 1.22031 13.04 1.77247 13.745 2.47746C14.45 3.17752 15.0022 3.9885 15.4015 4.91041C15.8008 5.83232 16.0005 6.81585 16.0005 7.86101C16.0005 8.90617 15.8008 9.8897 15.4015 10.8116C15.0022 11.7335 14.45 12.547 13.745 13.252C13.04 13.9569 12.2266 14.5066 11.3047 14.901C10.3828 15.3004 9.39925 15.5 8.35409 15.5ZM8.35409 13.9915C9.20698 13.9915 10.0032 13.8337 10.7427 13.5182C11.4822 13.2027 12.1329 12.7639 12.6949 12.2019C13.257 11.6399 13.6957 10.9891 14.0113 10.2496C14.3268 9.51009 14.4845 8.7139 14.4845 7.86101C14.4845 7.01305 14.3268 6.21932 14.0113 5.47982C13.6957 4.7354 13.257 4.08217 12.6949 3.52015C12.1329 2.95813 11.4797 2.51936 10.7353 2.20384C9.99578 1.88832 9.19958 1.73056 8.34669 1.73056C7.49873 1.73056 6.70254 1.88832 5.95811 2.20384C5.21861 2.51936 4.57032 2.95813 4.01323 3.52015C3.45614 4.08217 3.01983 4.7354 2.70431 5.47982C2.38879 6.21932 2.23103 7.01305 2.23103 7.86101C2.23103 8.7139 2.38879 9.51009 2.70431 10.2496C3.01983 10.9891 3.45614 11.6399 4.01323 12.2019C4.57525 12.7639 5.22601 13.2027 5.9655 13.5182C6.70993 13.8337 7.50613 13.9915 8.35409 13.9915Z" fill="white"/>
</svg>
