<svg width="18" height="16" viewBox="0 0 18 16" fill="none" xmlns="http://www.w3.org/2000/svg">
<path d="M9.05919 8.78649C8.79275 8.79059 8.51811 8.75779 8.23527 8.68811C7.95653 8.61432 7.6491 8.5016 7.31297 8.34993L1.23811 5.57074C1.01676 5.47646 0.848694 5.33914 0.733919 5.15878C0.623243 4.97432 0.567905 4.77962 0.567905 4.57466C0.567905 4.36971 0.623243 4.17705 0.733919 3.99669C0.848694 3.81633 1.01676 3.67696 1.23811 3.57858L7.31297 0.799391C7.6491 0.651824 7.95653 0.543198 8.23527 0.473513C8.51811 0.399729 8.79275 0.364887 9.05919 0.368986C9.32563 0.364887 9.60027 0.399729 9.88311 0.473513C10.1659 0.543198 10.4754 0.651824 10.8116 0.799391L16.8864 3.57858C17.1078 3.67696 17.2738 3.81633 17.3845 3.99669C17.4992 4.17705 17.5566 4.36971 17.5566 4.57466C17.5566 4.77962 17.4992 4.97432 17.3845 5.15878C17.2738 5.33914 17.1078 5.47646 16.8864 5.57074L10.8116 8.34993C10.4754 8.5016 10.1659 8.61432 9.88311 8.68811C9.60027 8.75779 9.32563 8.79059 9.05919 8.78649ZM9.05919 7.5998C9.25595 7.5998 9.45475 7.57315 9.65561 7.51986C9.86056 7.46248 10.0922 7.3764 10.3504 7.26162L15.8411 4.76527C15.9354 4.72018 15.9826 4.65664 15.9826 4.57466C15.9826 4.49678 15.9354 4.43529 15.8411 4.3902L10.3504 1.89385C10.0922 1.77498 9.86056 1.6889 9.65561 1.63561C9.45475 1.58232 9.25595 1.55568 9.05919 1.55568C8.86243 1.55568 8.66363 1.58232 8.46277 1.63561C8.26191 1.6889 8.03237 1.77498 7.77412 1.89385L2.28338 4.3902C2.1891 4.43529 2.14196 4.49678 2.14196 4.57466C2.14196 4.65664 2.1891 4.72018 2.28338 4.76527L7.77412 7.26162C8.03237 7.3764 8.26191 7.46248 8.46277 7.51986C8.66363 7.57315 8.86243 7.5998 9.05919 7.5998ZM2.98432 9.14311V5.92736H4.15872V9.14311C4.15872 9.45464 4.27349 9.75592 4.50304 10.047C4.73669 10.3339 5.06872 10.5901 5.49912 10.8155C5.92953 11.0369 6.44601 11.2132 7.04858 11.3443C7.65115 11.4796 8.32135 11.5472 9.05919 11.5472C9.80113 11.5472 10.4713 11.4796 11.0698 11.3443C11.6724 11.2132 12.1889 11.0369 12.6193 10.8155C13.0538 10.5901 13.3858 10.3339 13.6153 10.047C13.849 9.75592 13.9658 9.45464 13.9658 9.14311V5.92736H15.1402V9.14311C15.1402 9.6309 14.9926 10.088 14.6975 10.5143C14.4065 10.9365 13.9925 11.3074 13.4555 11.6272C12.9185 11.951 12.277 12.2031 11.5309 12.3834C10.7849 12.5638 9.96099 12.654 9.05919 12.654C8.15739 12.654 7.33347 12.5638 6.58743 12.3834C5.8455 12.2031 5.20399 11.951 4.66291 11.6272C4.12592 11.3074 3.71191 10.9365 3.42088 10.5143C3.12984 10.088 2.98432 9.6309 2.98432 9.14311ZM9.07764 5.35554C8.84809 5.35554 8.62673 5.32275 8.41358 5.25716C8.20453 5.18748 8.03237 5.09525 7.89709 4.98047C7.76592 4.8616 7.70034 4.72633 7.70034 4.57466C7.70034 4.42709 7.76592 4.29592 7.89709 4.18115C8.03237 4.06637 8.20453 3.97619 8.41358 3.91061C8.62673 3.84502 8.84809 3.81223 9.07764 3.81223C9.31128 3.81223 9.53264 3.84502 9.74169 3.91061C9.95484 3.97619 10.127 4.06637 10.2582 4.18115C10.3893 4.29592 10.4549 4.42709 10.4549 4.57466C10.4549 4.72633 10.3893 4.8616 10.2582 4.98047C10.127 5.09525 9.95689 5.18748 9.74784 5.25716C9.53878 5.32275 9.31538 5.35554 9.07764 5.35554ZM5.49912 6.84966L4.59527 6.37007L8.54885 4.32257L8.95466 5.03581L5.49912 6.84966ZM4.59527 12.8569V6.39466L5.49912 6.84966V12.863L4.59527 12.8569ZM4.05419 13.0045C4.05419 12.7462 4.13207 12.5372 4.28784 12.3773C4.4477 12.2215 4.65881 12.1436 4.92115 12.1436H5.16709C5.42534 12.1436 5.63234 12.2215 5.78811 12.3773C5.94797 12.5372 6.02791 12.7462 6.02791 13.0045V14.6523C6.02791 14.9146 5.94797 15.1237 5.78811 15.2795C5.63234 15.4393 5.42534 15.5193 5.16709 15.5193H4.92115C4.65881 15.5193 4.4477 15.4393 4.28784 15.2795C4.13207 15.1237 4.05419 14.9146 4.05419 14.6523V13.0045Z" fill="#080F19"/>
</svg>
