<svg width="15" height="14" viewBox="0 0 15 14" fill="none" xmlns="http://www.w3.org/2000/svg">
<path d="M6.8117 13.9288C6.54526 13.9288 6.31366 13.8509 6.1169 13.6951C5.92014 13.5435 5.79307 13.3406 5.73569 13.0864L5.48974 12.0412L5.35447 11.9981L4.45062 12.5515C4.22107 12.695 3.98127 12.7482 3.73123 12.7114C3.48528 12.6786 3.27008 12.5679 3.08562 12.3793L2.21866 11.5185C2.026 11.3259 1.91327 11.1066 1.88048 10.8606C1.85179 10.6106 1.90918 10.3749 2.05264 10.1535L2.61217 9.25582L2.56298 9.1267L1.53001 8.88075C1.27587 8.81926 1.07091 8.69014 0.915144 8.49338C0.763478 8.29663 0.687644 8.06503 0.687644 7.79859V6.59345C0.687644 6.32701 0.763478 6.09541 0.915144 5.89865C1.06681 5.7019 1.27177 5.57278 1.53001 5.51129L2.55683 5.2592L2.60602 5.12392L2.0465 4.22622C1.90713 4.00487 1.85179 3.77122 1.88048 3.52528C1.91327 3.27933 2.026 3.05798 2.21866 2.86122L3.07947 1.99426C3.26803 1.8098 3.48528 1.70118 3.73123 1.66838C3.97717 1.63149 4.21287 1.68273 4.43832 1.8221L5.34217 2.38163L5.48974 2.32629L5.73569 1.28102C5.79307 1.03097 5.92014 0.828069 6.1169 0.672303C6.31366 0.516537 6.54526 0.438655 6.8117 0.438655H8.06602C8.33246 0.438655 8.56406 0.516537 8.76082 0.672303C8.95758 0.82397 9.08465 1.02688 9.14204 1.28102L9.38183 2.32629L9.5294 2.38163L10.4394 1.8221C10.6608 1.68273 10.8944 1.63149 11.1403 1.66838C11.3904 1.70118 11.6076 1.8098 11.7921 1.99426L12.6591 2.86122C12.8517 3.05798 12.9624 3.27933 12.9911 3.52528C13.0239 3.77122 12.9706 4.00487 12.8312 4.22622L12.2656 5.12392L12.3209 5.2592L13.3477 5.51129C13.6019 5.57278 13.8048 5.7019 13.9564 5.89865C14.1122 6.09541 14.1901 6.32701 14.1901 6.59345V7.79859C14.1901 8.06503 14.1122 8.29663 13.9564 8.49338C13.8048 8.69014 13.6019 8.81926 13.3477 8.88075L12.3147 9.1267L12.2594 9.25582L12.8251 10.1535C12.9644 10.3749 13.0177 10.6106 12.9849 10.8606C12.9562 11.1066 12.8476 11.3259 12.6591 11.5185L11.7921 12.3793C11.6035 12.5679 11.3842 12.6786 11.1342 12.7114C10.8883 12.7482 10.6546 12.695 10.4333 12.5515L9.52325 11.9981L9.38183 12.0412L9.14204 13.0864C9.08465 13.3406 8.95758 13.5435 8.76082 13.6951C8.56406 13.8509 8.33246 13.9288 8.06602 13.9288H6.8117ZM7.00846 12.6991H7.86927C7.96764 12.6991 8.02298 12.6519 8.03528 12.5576L8.4042 11.0512C8.61325 11.0061 8.81001 10.9446 8.99447 10.8668C9.17893 10.7889 9.35314 10.6987 9.5171 10.5962L10.8329 11.4017C10.9108 11.455 10.9846 11.4468 11.0543 11.3771L11.6568 10.7745C11.7224 10.713 11.7286 10.6413 11.6753 10.5593L10.8637 9.24352C10.9579 9.08775 11.044 8.91559 11.1219 8.72703C11.1998 8.53438 11.2633 8.33967 11.3125 8.14291L12.8251 7.78629C12.9153 7.76989 12.9603 7.71251 12.9603 7.61413V6.77176C12.9603 6.67748 12.9153 6.62215 12.8251 6.60575L11.3125 6.23683C11.2674 6.03188 11.2039 5.83512 11.1219 5.64656C11.0399 5.4539 10.9559 5.28379 10.8698 5.13622L11.6814 3.82041C11.7347 3.73843 11.7286 3.66465 11.663 3.59906L11.0604 3.00264C10.9907 2.94115 10.9149 2.93296 10.8329 2.97805L9.5171 3.77737C9.35724 3.68309 9.18303 3.59496 8.99447 3.51298C8.81001 3.431 8.61325 3.36746 8.4042 3.32237L8.03528 1.8098C8.02298 1.71552 7.96764 1.66838 7.86927 1.66838H7.00846C6.91008 1.66838 6.85269 1.71552 6.83629 1.8098L6.47967 3.31007C6.27472 3.35926 6.06976 3.4269 5.86481 3.51298C5.66395 3.59496 5.49179 3.68104 5.34832 3.77122L4.03866 2.9719C3.95668 2.92681 3.88084 2.93706 3.81116 3.00264L3.20244 3.59291C3.14096 3.6585 3.13686 3.73433 3.19014 3.82041L4.00177 5.13622C3.91568 5.28379 3.83165 5.4539 3.74967 5.64656C3.66769 5.83512 3.60415 6.03393 3.55906 6.24298L2.05264 6.60575C1.96246 6.62215 1.91737 6.67748 1.91737 6.77176V7.61413C1.91737 7.71251 1.96246 7.76989 2.05264 7.78629L3.56521 8.14291C3.6103 8.34377 3.67179 8.53847 3.74967 8.72703C3.82755 8.91149 3.91364 9.08365 4.00791 9.24352L3.19014 10.5593C3.14505 10.6454 3.15325 10.7192 3.21474 10.7807L3.81731 11.3832C3.89109 11.4529 3.96487 11.4611 4.03866 11.4078L5.36062 10.5962C5.52048 10.6987 5.69469 10.7909 5.88325 10.8729C6.07591 10.9508 6.27267 11.0102 6.47352 11.0512L6.83629 12.5576C6.85269 12.6519 6.91008 12.6991 7.00846 12.6991ZM7.43886 9.51406C7.01255 9.51406 6.62314 9.40953 6.27062 9.20048C5.91809 8.98733 5.63526 8.70449 5.4221 8.35197C5.21305 7.99944 5.10852 7.61003 5.10852 7.18372C5.10852 6.76152 5.21305 6.37415 5.4221 6.02163C5.63526 5.66911 5.91809 5.38832 6.27062 5.17926C6.62314 4.97021 7.01255 4.86568 7.43886 4.86568C7.86517 4.86568 8.25458 4.97021 8.6071 5.17926C8.95963 5.38832 9.24041 5.66911 9.44947 6.02163C9.65852 6.37415 9.76305 6.76152 9.76305 7.18372C9.76305 7.61003 9.65852 7.99944 9.44947 8.35197C9.24041 8.70449 8.95963 8.98733 8.6071 9.20048C8.25458 9.40953 7.86517 9.51406 7.43886 9.51406ZM7.43886 8.38271C7.65201 8.38271 7.84672 8.32942 8.02298 8.22284C8.20334 8.11217 8.34681 7.96665 8.45339 7.78629C8.56406 7.60183 8.6194 7.40097 8.6194 7.18372C8.6194 6.96647 8.56406 6.76971 8.45339 6.59345C8.34681 6.41309 8.20334 6.26962 8.02298 6.16305C7.84672 6.05237 7.65201 5.99703 7.43886 5.99703C7.22161 5.99703 7.0228 6.05032 6.84244 6.1569C6.66208 6.26347 6.51656 6.40694 6.40589 6.5873C6.29931 6.76766 6.24602 6.96647 6.24602 7.18372C6.24602 7.40507 6.29931 7.60593 6.40589 7.78629C6.51656 7.96665 6.66208 8.11217 6.84244 8.22284C7.0228 8.32942 7.22161 8.38271 7.43886 8.38271Z" fill="#080F19"/>
</svg>
