<svg width="19" height="19" viewBox="0 0 19 19" fill="none" xmlns="http://www.w3.org/2000/svg">
<path d="M7.13721 10.875H11.6345" stroke="#080F19" stroke-width="1.34919" stroke-linecap="round" stroke-linejoin="round"/>
<path d="M7.13721 8.62695H11.6345" stroke="#080F19" stroke-width="1.34919" stroke-linecap="round" stroke-linejoin="round"/>
<path d="M11.6346 3.00488H14.4452C14.5943 3.00488 14.7373 3.06411 14.8428 3.16954C14.9482 3.27496 15.0074 3.41795 15.0074 3.56704V15.3725C15.0074 15.5215 14.9482 15.6645 14.8428 15.77C14.7373 15.8754 14.5943 15.9346 14.4452 15.9346H4.32632C4.17723 15.9346 4.03424 15.8754 3.92881 15.77C3.82339 15.6645 3.76416 15.5215 3.76416 15.3725V3.56704C3.76416 3.41795 3.82339 3.27496 3.92881 3.16954C4.03424 3.06411 4.17723 3.00488 4.32632 3.00488H7.13698" stroke="#080F19" stroke-width="1.34919" stroke-linecap="round" stroke-linejoin="round"/>
<path d="M6.57471 5.25383V4.69167C6.57471 3.9462 6.87085 3.23126 7.39797 2.70413C7.9251 2.177 8.64004 1.88086 9.38552 1.88086C10.131 1.88086 10.8459 2.177 11.3731 2.70413C11.9002 3.23126 12.1963 3.9462 12.1963 4.69167V5.25383H6.57471Z" stroke="#080F19" stroke-width="1.34919" stroke-linecap="round" stroke-linejoin="round"/>
</svg>
